<?xml version="1.0" encoding="utf-8"?>
<!-- Generator: Adobe Illustrator 17.1.0, SVG Export Plug-In . SVG Version: 6.00 Build 0)  -->
<!DOCTYPE svg PUBLIC "-//W3C//DTD SVG 1.1//EN" "http://www.w3.org/Graphics/SVG/1.1/DTD/svg11.dtd">
<svg version="1.1" xmlns="http://www.w3.org/2000/svg" xmlns:xlink="http://www.w3.org/1999/xlink" x="0px" y="0px"
	 viewBox="0 0 194 69.7" enable-background="new 0 0 194 69.7" xml:space="preserve">
<g id="BG">
</g>
<g id="Layer_1">
	<g>
		<g id="XMLID_241_">
			<path id="XMLID_262_" d="M9.1,39.5c0.1,1.5,0.2,2.8,0.7,3.9c0.6,0.9,1.5,1.6,3.2,1.6c2.5,0,3.7-1.5,3.7-3.5
				c0-1.6-0.7-3.1-3.9-4.2C4.3,34.5,0.3,32.9,0.3,25.6c0-6.8,4.7-10.3,13-10.3c9.6,0,12.4,4.7,12.4,9.6V26h-9.1v-0.6
				c0-3-1.1-3.8-3.4-3.8c-2.7,0-3.5,1.3-3.5,3.2c0,6,16.4,2,16.4,15.3c0,6.9-4.6,11.2-13.1,11.2C3.9,51.3,0,47.9,0,41v-1.5H9.1z"/>
			<g id="XMLID_258_">
				<rect id="XMLID_261_" x="165.5" y="39.5" width="10.8" height="11.8"/>
				<rect id="XMLID_260_" x="183.2" y="39.5" width="10.8" height="11.8"/>
				<path id="XMLID_259_" d="M184.7,15.3c-4,0-7.2,1.1-8.7,4.3h-0.1v-4.3h-10.4V35h10.8v-7.2c0-3.5,1.8-5.1,3.9-5.1s3.1,1.5,3.1,4.1
					V35H194V24.3C194,17.4,190.8,15.3,184.7,15.3z"/>
			</g>
			<g id="XMLID_255_">
				<path id="XMLID_257_" d="M142.4,35c0-0.5,0-1.1,0-1.7c0-8.3,0.9-11.3,3.9-11.3c3.2,0,3.8,2.8,3.8,11.3c0,0.6,0,1.1,0,1.7h10.2
					c0-0.6,0-1.2,0-1.8c0-10.3-1.6-17.9-14.1-17.9c-11.8,0-14.1,7.8-14.1,18.1c0,0.5,0,1.1,0,1.6H142.4z"/>
				<path id="XMLID_256_" d="M149.8,39.5c-0.4,3.7-1.4,5.1-3.6,5.1c-2.1,0-3.2-1.4-3.6-5.1h-10.2c0.9,7,3.9,11.8,13.8,11.8
					c9.2,0,12.6-4.8,13.7-11.8H149.8z"/>
			</g>
			<g id="XMLID_251_">
				<polygon id="XMLID_254_" points="126.5,35 126.5,15.3 115.8,15.3 115.8,35 				"/>
				<ellipse id="XMLID_253_" cx="121.2" cy="5.4" rx="5.3" ry="5.4"/>
				<rect id="XMLID_252_" x="115.8" y="39.5" width="10.7" height="11.8"/>
			</g>
			<g id="XMLID_248_">
				<polygon id="XMLID_250_" points="96.2,35 106.9,35 106.9,22.7 111.6,22.7 111.6,15.3 106.9,15.3 106.9,4.8 96.2,4.8 96.2,15.3 
					91.5,15.3 91.5,22.7 96.2,22.7 				"/>
				<rect id="XMLID_249_" x="96.2" y="39.5" width="10.7" height="11.8"/>
			</g>
			<g id="XMLID_245_">
				<path id="XMLID_247_" d="M80.3,39.5c-0.4,3.7-1.2,5.1-3.7,5.1c-2.3,0-3.2-1.6-3.6-5.1H62.9c0.9,6.7,3.9,11.8,13.5,11.8
					c8.3,0,12.6-3.4,13.4-11.8H80.3z"/>
				<path id="XMLID_246_" d="M72.8,35c0-0.5,0-1.1,0-1.7c0-7,0.5-11.3,3.9-11.3c2.7,0,3.9,2,3.9,7.1H90c0-8.2-2.7-13.8-13.5-13.8
					c-11.1,0-13.9,7.2-13.9,16.8c0,1,0,2,0,2.9H72.8z"/>
			</g>
			<path id="XMLID_242_" d="M48.8,39.5C48.5,43.2,47.6,45,45,45c-3.1,0-3.9-2.6-3.9-7.9V35h18c0-11.6-1-19.7-14.2-19.7
				c-11.6,0-14.5,7.2-14.5,16.8c0,10.1,1.1,19.2,14.5,19.2c8.6,0,13.3-3.8,13.8-11.8H48.8z M45.2,21.6c3,0,3.6,2.6,3.6,7.4h-7.7
				C41.1,24.4,41.7,21.6,45.2,21.6z"/>
			<rect x="115.8" y="39.5" width="10.7" height="11.8"/>
		</g>
		<g>
			<g>
				<path d="M41.4,67.7c0,0.6,0,1.2,0.6,1.2c0.1,0,0.3,0,0.5-0.1v0.6c-0.2,0.1-0.4,0.1-0.6,0.1c-1.1,0-1.3-0.6-1.3-1.4v-0.5h0
					c-0.5,1.2-1.8,2.2-3.6,2.2c-1.9,0-3.3-0.7-3.3-2.8c0-2.3,2-2.7,3.6-2.9c3.2-0.2,3.4-0.5,3.4-2c0-0.4-0.5-1.9-2.7-1.9
					c-1.8,0-2.9,0.9-3,2.6h-0.7c0.1-2.2,1.4-3.2,3.7-3.2c1.7,0,3.4,0.5,3.4,2.6V67.7z M40.7,63.9c-0.6,0.7-2.1,0.6-3.6,0.8
					c-1.7,0.2-2.7,0.8-2.7,2.3c0,1.2,0.8,2.1,2.6,2.1c3.3,0,3.7-2.8,3.7-3.3V63.9z"/>
				<path d="M50.8,61.8L50.8,61.8c0.4-1.3,2-2.3,3.8-2.2v0.7c-0.8-0.1-1.8,0.1-2.7,1c-0.7,0.8-1.1,1.4-1.1,2.8v5.4h-0.7v-9.8h0.7
					V61.8z"/>
				<path d="M68.4,62.7c-0.2-1.7-1.5-2.6-3.3-2.6c-2.4,0-3.8,2.2-3.8,4.4c0,2.7,1.2,4.6,3.8,4.6c1.8,0,3.2-1.3,3.4-3.1h0.7
					c-0.3,2.3-2,3.7-4.1,3.7c-3.2,0-4.5-2.5-4.5-5.2c0-2.7,1.6-5,4.5-5c2.1,0,3.8,1.1,4,3.3H68.4z"/>
				<path d="M77.2,55.8v5.9h0c0.5-1.5,2-2.3,3.5-2.3c3.5,0,3.5,2.8,3.5,4v6.1h-0.7v-6.2c0-1-0.1-3.2-2.8-3.2c-2.2,0-3.5,1.7-3.5,4.1
					v5.3h-0.7V55.8H77.2z"/>
				<path d="M104.4,60.3h-2.1v6.9c0,1.6,0.7,1.8,2.1,1.7v0.6c-1.5,0.1-2.9-0.1-2.8-2.3v-6.9h-1.8v-0.6h1.8v-3.8h0.7v3.8h2.1V60.3z"
					/>
				<path d="M111.6,64.7c-0.1,2.3,1.2,4.4,3.6,4.4c1.9,0,3.2-1.1,3.5-2.9h0.7c-0.4,2.3-1.9,3.6-4.2,3.6c-2.8,0-4.4-2.3-4.3-5
					c-0.1-2.7,1.4-5.3,4.3-5.3c3.1,0,4.5,2.4,4.3,5.2H111.6z M118.8,64c-0.1-2.1-1.4-4-3.6-4c-2.2,0-3.5,2-3.6,4H118.8z"/>
				<path d="M134.2,62.7c-0.2-1.7-1.5-2.6-3.3-2.6c-2.4,0-3.8,2.2-3.8,4.4c0,2.7,1.2,4.6,3.8,4.6c1.8,0,3.2-1.3,3.4-3.1h0.7
					c-0.3,2.3-2,3.7-4.1,3.7c-3.2,0-4.5-2.5-4.5-5.2c0-2.7,1.6-5,4.5-5c2.1,0,3.8,1.1,4,3.3H134.2z"/>
				<path d="M145.9,60.3h-2.1v6.9c0,1.6,0.7,1.8,2.1,1.7v0.6c-1.5,0.1-2.9-0.1-2.8-2.3v-6.9h-1.8v-0.6h1.8v-3.8h0.7v3.8h2.1V60.3z"
					/>
				<path d="M153.2,66.2c0.1,1.8,1.5,2.9,3.2,2.9c1.3,0,3.1-0.4,3.1-2.1c0-3.3-6.7-1-6.7-5c0-1.9,1.9-2.5,3.6-2.5
					c2.1,0,3.6,0.9,3.6,3.1h-0.7c0-1.8-1.3-2.5-2.9-2.5c-1.3,0-2.8,0.5-2.8,1.9c0,1.6,1.7,1.8,3.3,2.2c1.9,0.4,3.5,0.8,3.5,2.9
					c0,2.1-2.1,2.7-3.8,2.7c-2.2,0-3.9-1.2-4-3.5H153.2z"/>
				<path id="XMLID_238_" d="M92.1,59.7h0.7v9.8h-0.7V59.7z M92.9,57c0,0.2-0.2,0.4-0.4,0.4s-0.4-0.2-0.4-0.4s0.2-0.4,0.4-0.4
					S92.9,56.8,92.9,57z"/>
			</g>
		</g>
	</g>
</g>
</svg>
